<mxfile host="app.diagrams.net" modified="2023-05-07T16:48:50.347Z" agent="Mozilla/5.0 (Macintosh; Intel Mac OS X 10_15_7) AppleWebKit/537.36 (KHTML, like Gecko) Chrome/113.0.0.0 Safari/537.36 Edg/113.0.1774.35" version="21.2.7" etag="RxZ05W5e3CW5uiAcL6lz" type="github">
  <diagram name="第 1 页" id="nLRqevLCyjN-2gyXgyQp">
    <mxGraphModel>
      <root>
        <mxCell id="0" />
        <mxCell id="1" parent="0" />
      </root>
    </mxGraphModel>
  </diagram>
</mxfile>
